<svg width="24" height="24" viewBox="0 0 24 24" fill="none" xmlns="http://www.w3.org/2000/svg">
<path d="M9.85798 5.14293H14.1437C14.1437 4.57461 13.9179 4.02956 13.5161 3.6277C13.1142 3.22583 12.5692 3.00007 12.0008 3.00007C11.4325 3.00007 10.8875 3.22583 10.4856 3.6277C10.0837 4.02956 9.85798 4.57461 9.85798 5.14293ZM8.57227 5.14293C8.57227 4.23361 8.93349 3.36154 9.57647 2.71856C10.2195 2.07558 11.0915 1.71436 12.0008 1.71436C12.9102 1.71436 13.7822 2.07558 14.4252 2.71856C15.0682 3.36154 15.4294 4.23361 15.4294 5.14293H20.7866C20.957 5.14293 21.1206 5.21066 21.2411 5.33122C21.3617 5.45177 21.4294 5.61529 21.4294 5.78578C21.4294 5.95628 21.3617 6.11979 21.2411 6.24035C21.1206 6.36091 20.957 6.42864 20.7866 6.42864H19.6637L18.6206 18.9455C18.5447 19.8561 18.1293 20.7049 17.457 21.3236C16.7846 21.9423 15.9043 22.2857 14.9906 22.2858H9.01112C8.0974 22.2857 7.21707 21.9423 6.5447 21.3236C5.87233 20.7049 5.45702 19.8561 5.38112 18.9455L4.33798 6.42864H3.21512C3.04463 6.42864 2.88111 6.36091 2.76055 6.24035C2.63999 6.11979 2.57227 5.95628 2.57227 5.78578C2.57227 5.61529 2.63999 5.45177 2.76055 5.33122C2.88111 5.21066 3.04463 5.14293 3.21512 5.14293H8.57227ZM6.66255 18.8384C6.71157 19.4276 6.98023 19.9768 7.41525 20.3772C7.85027 20.7777 8.41988 21 9.01112 21.0001H14.9906C15.5818 21 16.1514 20.7777 16.5864 20.3772C17.0214 19.9768 17.2901 19.4276 17.3391 18.8384L18.3746 6.42864H5.62798L6.66255 18.8384ZM10.0723 9.42864C10.2428 9.42864 10.4063 9.49637 10.5268 9.61693C10.6474 9.73749 10.7151 9.901 10.7151 10.0715V17.3572C10.7151 17.5277 10.6474 17.6912 10.5268 17.8118C10.4063 17.9323 10.2428 18.0001 10.0723 18.0001C9.90177 18.0001 9.73826 17.9323 9.6177 17.8118C9.49714 17.6912 9.42941 17.5277 9.42941 17.3572V10.0715C9.42941 9.901 9.49714 9.73749 9.6177 9.61693C9.73826 9.49637 9.90177 9.42864 10.0723 9.42864ZM14.5723 10.0715C14.5723 9.901 14.5045 9.73749 14.384 9.61693C14.2634 9.49637 14.0999 9.42864 13.9294 9.42864C13.7589 9.42864 13.5954 9.49637 13.4748 9.61693C13.3543 9.73749 13.2866 9.901 13.2866 10.0715V17.3572C13.2866 17.5277 13.3543 17.6912 13.4748 17.8118C13.5954 17.9323 13.7589 18.0001 13.9294 18.0001C14.0999 18.0001 14.2634 17.9323 14.384 17.8118C14.5045 17.6912 14.5723 17.5277 14.5723 17.3572V10.0715Z" fill="#FE5D5D"/>
</svg>
