<svg width="200" height="200" viewBox="0 0 200 200" fill="none" xmlns="http://www.w3.org/2000/svg">
<path d="M163.746 161.518L98.7869 199.419L33.9258 161.518V104.284H163.746V161.518Z" fill="#EEC39A"/>
<path d="M98.786 200C98.7001 200 98.6155 199.977 98.5397 199.932L33.6808 162.031C33.5964 161.982 33.5258 161.908 33.4764 161.818C33.427 161.728 33.4007 161.625 33.4004 161.519V104.284C33.4004 104.13 33.4558 103.982 33.5545 103.873C33.6532 103.764 33.787 103.703 33.9266 103.703H163.745C163.885 103.703 164.019 103.764 164.117 103.873C164.216 103.982 164.271 104.13 164.271 104.284V161.518C164.271 161.623 164.245 161.726 164.195 161.816C164.146 161.906 164.075 161.98 163.991 162.029L99.0319 199.931C98.9563 199.976 98.8719 199.999 98.786 200ZM34.4511 161.168L98.786 198.761L163.219 161.167V104.865H34.4511V161.168Z" fill="#262626"/>
<path d="M163.744 92.0025L98.7852 54.1014L127.975 38.5581L192.935 76.4596L163.744 92.0025Z" fill="#EEC39A"/>
<path d="M163.745 92.5839C163.659 92.5839 163.575 92.5609 163.499 92.5169L98.54 54.6154C98.4539 54.5651 98.3822 54.4894 98.3328 54.3967C98.2833 54.3041 98.2581 54.1981 98.2599 54.0905C98.2616 53.983 98.2904 53.8781 98.3429 53.7875C98.3954 53.6969 98.4696 53.6242 98.5573 53.5774L127.747 38.0341C127.822 37.9943 127.903 37.9745 127.986 37.9762C128.068 37.9779 128.149 38.0011 128.222 38.0438L193.181 75.9453C193.267 75.9956 193.339 76.0712 193.388 76.1639C193.438 76.2565 193.463 76.3624 193.461 76.47C193.459 76.5775 193.431 76.6824 193.378 76.7729C193.326 76.8635 193.251 76.9361 193.164 76.9829L163.974 92.5262C163.902 92.5642 163.824 92.584 163.745 92.5839ZM99.9532 54.1243L163.756 91.3506L191.768 76.435L127.965 39.2097L99.9532 54.1243Z" fill="#262626"/>
<path d="M33.9265 92.0025L98.8857 54.1014L69.6955 38.5581L4.73633 76.4596L33.9265 92.0025Z" fill="#EEC39A"/>
<path d="M33.9256 92.5839C33.8464 92.5839 33.7683 92.5642 33.697 92.5262L4.50852 76.9829C4.42084 76.9361 4.34661 76.8635 4.29409 76.7729C4.24157 76.6824 4.21282 76.5775 4.21103 76.47C4.20924 76.3624 4.23448 76.2565 4.28396 76.1639C4.33343 76.0712 4.40519 75.9956 4.49126 75.9453L69.4504 38.0438C69.5232 38.0011 69.6042 37.9779 69.6866 37.9762C69.769 37.9745 69.8507 37.9943 69.9249 38.0341L99.115 53.5774C99.2027 53.6242 99.2769 53.6969 99.3294 53.7875C99.3819 53.8781 99.4107 53.983 99.4124 54.0905C99.4142 54.1981 99.389 54.3041 99.3395 54.3967C99.2901 54.4894 99.2184 54.5651 99.1323 54.6154L34.1731 92.5169C34.0968 92.5613 34.0118 92.5843 33.9256 92.5839ZM5.90276 76.436L33.9146 91.3515L97.7174 54.1252L69.7056 39.2097L5.90276 76.436Z" fill="#262626"/>
<path d="M33.9252 92.0024L98.8844 129.904L65.4846 150.097L0.525391 112.196L33.9252 92.0024Z" fill="#EEC39A"/>
<path d="M65.4847 150.679C65.399 150.679 65.3146 150.656 65.2389 150.611L0.279671 112.71C0.195803 112.661 0.125528 112.587 0.0762953 112.498C0.0270625 112.408 0.000704314 112.305 1.39197e-05 112.2C-0.000676474 112.096 0.0243267 111.992 0.0723738 111.902C0.120421 111.812 0.189722 111.737 0.272934 111.687L33.6728 91.4928C33.749 91.4466 33.8345 91.422 33.9215 91.4214C34.0085 91.4208 34.0943 91.444 34.1712 91.4891L99.1304 129.391C99.2142 129.44 99.2845 129.513 99.3337 129.603C99.383 129.692 99.4093 129.795 99.41 129.9C99.4107 130.005 99.3857 130.108 99.3377 130.198C99.2896 130.289 99.2203 130.363 99.1371 130.414L65.7373 150.608C65.6598 150.654 65.573 150.679 65.4847 150.679ZM1.63686 112.187L65.4801 149.438L97.7736 129.913L33.93 92.6624L1.63686 112.187Z" fill="#262626"/>
<path d="M163.746 92.0024L98.7871 129.904L132.187 150.097L197.146 112.196L163.746 92.0024Z" fill="#EEC39A"/>
<path d="M132.187 150.679C132.099 150.679 132.012 150.654 131.934 150.608L98.5347 130.414C98.4514 130.363 98.3821 130.289 98.3341 130.198C98.286 130.108 98.261 130.005 98.2617 129.9C98.2624 129.795 98.2888 129.692 98.338 129.603C98.3872 129.513 98.4575 129.44 98.5414 129.391L163.501 91.4891C163.577 91.444 163.663 91.4208 163.75 91.4214C163.837 91.422 163.923 91.4466 163.999 91.4928L197.399 111.687C197.482 111.737 197.551 111.812 197.599 111.902C197.647 111.992 197.672 112.096 197.672 112.2C197.671 112.305 197.645 112.408 197.595 112.498C197.546 112.587 197.476 112.661 197.392 112.71L132.433 150.611C132.357 150.656 132.273 150.679 132.187 150.679ZM99.899 129.913L132.192 149.438L196.036 112.187L163.742 92.6624L99.899 129.913Z" fill="#262626"/>
<path d="M98.885 54.1016L33.9258 92.0026L98.7869 129.904L163.746 92.0026L98.885 54.1016Z" fill="#262626"/>
<path d="M99.3122 129.904H98.2598V199.419H99.3122V129.904Z" fill="#262626"/>
<path d="M62.3917 88.5617C62.3046 88.5618 62.2196 88.5317 62.1488 88.4757C62.0577 88.4044 61.9959 88.2961 61.9771 88.1745C61.9584 88.0529 61.984 87.9281 62.0486 87.8274C62.1265 87.7061 69.7346 75.5552 61.2412 64.4778C59.7379 62.507 57.8627 60.9231 55.7469 59.8374C53.6312 58.7516 51.3261 58.19 48.9932 58.1922H48.8787C49.6852 61.2875 49.5413 64.0397 48.3992 66.151C47.9126 67.1051 47.1944 67.8901 46.3257 68.4176C45.457 68.9451 44.4722 69.1941 43.4823 69.1366C42.6629 69.0625 41.8808 68.726 41.2319 68.1682C40.5829 67.6105 40.0953 66.8558 39.8288 65.9966C38.8946 63.3049 39.8709 60.6951 42.4438 59.013C44.0737 58.02 45.8849 57.4445 47.7433 57.329C47.1388 55.5583 46.3526 53.8699 45.4002 52.2967C42.3335 47.1226 36.7443 43.5408 30.0653 42.4698C24.405 41.5625 18.9804 42.6312 16.2437 45.1917C16.1585 45.2714 16.0481 45.3104 15.9368 45.3001C15.8255 45.2899 15.7225 45.2312 15.6504 45.1371C15.5783 45.0429 15.543 44.9209 15.5522 44.798C15.5615 44.6751 15.6146 44.5613 15.6999 44.4816C18.6121 41.7569 24.2981 40.6049 30.1861 41.5518C37.1038 42.6614 42.9056 46.3925 46.1049 51.7894C47.1422 53.501 47.9859 55.3464 48.6173 57.2844C51.1339 57.2176 53.632 57.7754 55.9276 58.9167C58.2232 60.0579 60.2578 61.7536 61.8815 63.8788C70.803 75.5139 62.8147 88.2404 62.7331 88.3678C62.6942 88.4277 62.6429 88.4766 62.5835 88.5103C62.5242 88.544 62.4584 88.5616 62.3917 88.5617ZM48.0165 58.2261C46.2147 58.311 44.455 58.8543 42.8744 59.8138C40.6534 61.2657 39.8309 63.3984 40.6168 65.6641C40.8298 66.3584 41.2213 66.969 41.7434 67.4213C42.2656 67.8735 42.8957 68.1479 43.5568 68.2107C44.3892 68.2519 45.2155 68.0365 45.9434 67.5886C46.6713 67.1407 47.2721 66.4779 47.6785 65.6743C48.7267 63.7351 48.8227 61.1573 48.0153 58.2261H48.0165Z" fill="#2F2B2F"/>
<path d="M62.3917 88.5617C62.3046 88.5618 62.2196 88.5317 62.1488 88.4757C62.0577 88.4044 61.9959 88.2961 61.9771 88.1745C61.9584 88.0529 61.984 87.9281 62.0486 87.8274C62.1265 87.7061 69.7346 75.5552 61.2412 64.4778C59.7379 62.507 57.8627 60.9231 55.7469 59.8374C53.6312 58.7516 51.3261 58.19 48.9932 58.1922H48.8787C49.6852 61.2875 49.5413 64.0397 48.3992 66.151C47.9126 67.1051 47.1944 67.8901 46.3257 68.4176C45.457 68.9451 44.4722 69.1941 43.4823 69.1366C42.6629 69.0625 41.8808 68.726 41.2319 68.1682C40.5829 67.6105 40.0953 66.8558 39.8288 65.9966C38.8946 63.3049 39.8709 60.6951 42.4438 59.013C44.0737 58.02 45.8849 57.4445 47.7433 57.329C47.1388 55.5583 46.3526 53.8699 45.4002 52.2967C42.3335 47.1226 36.7443 43.5408 30.0653 42.4698C24.405 41.5625 18.9804 42.6312 16.2437 45.1917C16.1585 45.2714 16.0481 45.3104 15.9368 45.3001C15.8255 45.2899 15.7225 45.2312 15.6504 45.1371C15.5783 45.0429 15.543 44.9209 15.5522 44.798C15.5615 44.6751 15.6146 44.5613 15.6999 44.4816C18.6121 41.7569 24.2981 40.6049 30.1861 41.5518C37.1038 42.6614 42.9056 46.3925 46.1049 51.7894C47.1422 53.501 47.9859 55.3464 48.6173 57.2844C51.1339 57.2176 53.632 57.7754 55.9276 58.9167C58.2232 60.0579 60.2578 61.7536 61.8815 63.8788C70.803 75.5139 62.8147 88.2404 62.7331 88.3678C62.6942 88.4277 62.6429 88.4766 62.5835 88.5103C62.5242 88.544 62.4584 88.5616 62.3917 88.5617ZM48.0165 58.2261C46.2147 58.311 44.455 58.8543 42.8744 59.8138C40.6534 61.2657 39.8309 63.3984 40.6168 65.6641C40.8298 66.3584 41.2213 66.969 41.7434 67.4213C42.2656 67.8735 42.8957 68.1479 43.5568 68.2107C44.3892 68.2519 45.2155 68.0365 45.9434 67.5886C46.6713 67.1407 47.2721 66.4779 47.6785 65.6743C48.7267 63.7351 48.8227 61.1573 48.0153 58.2261H48.0165Z" fill="black" fill-opacity="0.2"/>
<path d="M62.3917 88.5617C62.3046 88.5618 62.2196 88.5317 62.1488 88.4757C62.0577 88.4044 61.9959 88.2961 61.9771 88.1745C61.9584 88.0529 61.984 87.9281 62.0486 87.8274C62.1265 87.7061 69.7346 75.5552 61.2412 64.4778C59.7379 62.507 57.8627 60.9231 55.7469 59.8374C53.6312 58.7516 51.3261 58.19 48.9932 58.1922H48.8787C49.6852 61.2875 49.5413 64.0397 48.3992 66.151C47.9126 67.1051 47.1944 67.8901 46.3257 68.4176C45.457 68.9451 44.4722 69.1941 43.4823 69.1366C42.6629 69.0625 41.8808 68.726 41.2319 68.1682C40.5829 67.6105 40.0953 66.8558 39.8288 65.9966C38.8946 63.3049 39.8709 60.6951 42.4438 59.013C44.0737 58.02 45.8849 57.4445 47.7433 57.329C47.1388 55.5583 46.3526 53.8699 45.4002 52.2967C42.3335 47.1226 36.7443 43.5408 30.0653 42.4698C24.405 41.5625 18.9804 42.6312 16.2437 45.1917C16.1585 45.2714 16.0481 45.3104 15.9368 45.3001C15.8255 45.2899 15.7225 45.2312 15.6504 45.1371C15.5783 45.0429 15.543 44.9209 15.5522 44.798C15.5615 44.6751 15.6146 44.5613 15.6999 44.4816C18.6121 41.7569 24.2981 40.6049 30.1861 41.5518C37.1038 42.6614 42.9056 46.3925 46.1049 51.7894C47.1422 53.501 47.9859 55.3464 48.6173 57.2844C51.1339 57.2176 53.632 57.7754 55.9276 58.9167C58.2232 60.0579 60.2578 61.7536 61.8815 63.8788C70.803 75.5139 62.8147 88.2404 62.7331 88.3678C62.6942 88.4277 62.6429 88.4766 62.5835 88.5103C62.5242 88.544 62.4584 88.5616 62.3917 88.5617ZM48.0165 58.2261C46.2147 58.311 44.455 58.8543 42.8744 59.8138C40.6534 61.2657 39.8309 63.3984 40.6168 65.6641C40.8298 66.3584 41.2213 66.969 41.7434 67.4213C42.2656 67.8735 42.8957 68.1479 43.5568 68.2107C44.3892 68.2519 45.2155 68.0365 45.9434 67.5886C46.6713 67.1407 47.2721 66.4779 47.6785 65.6743C48.7267 63.7351 48.8227 61.1573 48.0153 58.2261H48.0165Z" fill="black" fill-opacity="0.2"/>
<path d="M8.97816 52.6896C8.2628 52.927 7.49179 52.8466 6.82932 52.4654C6.16685 52.0842 5.66524 51.4324 5.43131 50.6487C5.19738 49.865 5.2496 49.0115 5.57685 48.2697C5.9041 47.5279 6.48054 46.9566 7.18341 46.6773C7.88629 46.3981 8.66008 46.4329 9.34003 46.7745C10.02 47.1161 10.5524 47.7374 10.8238 48.5062C11.0953 49.2749 11.0844 50.1304 10.7934 50.8904C10.5025 51.6504 9.95449 52.2549 9.26611 52.5752C9.17209 52.6191 9.07596 52.6573 8.97816 52.6896ZM7.57845 47.522C7.51026 47.5446 7.44323 47.5713 7.37765 47.602C6.89329 47.8276 6.5078 48.2532 6.30329 48.7882C6.09877 49.3231 6.0914 49.9251 6.28273 50.466C6.47406 51.0069 6.84898 51.4438 7.32764 51.6838C7.8063 51.9239 8.35086 51.9479 8.84536 51.751C9.33985 51.554 9.74518 51.1515 9.97504 50.6293C10.2049 50.107 10.2411 49.5063 10.0759 48.955C9.91078 48.4037 9.55732 47.9454 9.09083 47.6777C8.62434 47.4101 8.08169 47.3542 7.57845 47.522Z" fill="#2F2B2F"/>
<path d="M8.97816 52.6896C8.2628 52.927 7.49179 52.8466 6.82932 52.4654C6.16685 52.0842 5.66524 51.4324 5.43131 50.6487C5.19738 49.865 5.2496 49.0115 5.57685 48.2697C5.9041 47.5279 6.48054 46.9566 7.18341 46.6773C7.88629 46.3981 8.66008 46.4329 9.34003 46.7745C10.02 47.1161 10.5524 47.7374 10.8238 48.5062C11.0953 49.2749 11.0844 50.1304 10.7934 50.8904C10.5025 51.6504 9.95449 52.2549 9.26611 52.5752C9.17209 52.6191 9.07596 52.6573 8.97816 52.6896ZM7.57845 47.522C7.51026 47.5446 7.44323 47.5713 7.37765 47.602C6.89329 47.8276 6.5078 48.2532 6.30329 48.7882C6.09877 49.3231 6.0914 49.9251 6.28273 50.466C6.47406 51.0069 6.84898 51.4438 7.32764 51.6838C7.8063 51.9239 8.35086 51.9479 8.84536 51.751C9.33985 51.554 9.74518 51.1515 9.97504 50.6293C10.2049 50.107 10.2411 49.5063 10.0759 48.955C9.91078 48.4037 9.55732 47.9454 9.09083 47.6777C8.62434 47.4101 8.08169 47.3542 7.57845 47.522Z" fill="black" fill-opacity="0.2"/>
<path d="M8.97816 52.6896C8.2628 52.927 7.49179 52.8466 6.82932 52.4654C6.16685 52.0842 5.66524 51.4324 5.43131 50.6487C5.19738 49.865 5.2496 49.0115 5.57685 48.2697C5.9041 47.5279 6.48054 46.9566 7.18341 46.6773C7.88629 46.3981 8.66008 46.4329 9.34003 46.7745C10.02 47.1161 10.5524 47.7374 10.8238 48.5062C11.0953 49.2749 11.0844 50.1304 10.7934 50.8904C10.5025 51.6504 9.95449 52.2549 9.26611 52.5752C9.17209 52.6191 9.07596 52.6573 8.97816 52.6896ZM7.57845 47.522C7.51026 47.5446 7.44323 47.5713 7.37765 47.602C6.89329 47.8276 6.5078 48.2532 6.30329 48.7882C6.09877 49.3231 6.0914 49.9251 6.28273 50.466C6.47406 51.0069 6.84898 51.4438 7.32764 51.6838C7.8063 51.9239 8.35086 51.9479 8.84536 51.751C9.33985 51.554 9.74518 51.1515 9.97504 50.6293C10.2049 50.107 10.2411 49.5063 10.0759 48.955C9.91078 48.4037 9.55732 47.9454 9.09083 47.6777C8.62434 47.4101 8.08169 47.3542 7.57845 47.522Z" fill="black" fill-opacity="0.2"/>
<path d="M8.97261 45.4023C8.29591 45.6255 7.56839 45.5645 6.92994 45.231C6.2915 44.8975 5.78718 44.315 5.51396 43.5956C5.2949 43.0188 5.23558 42.3832 5.34351 41.7692C5.45144 41.1552 5.72177 40.5904 6.12031 40.1461C6.51885 39.7018 7.0277 39.3981 7.58251 39.2733C8.13732 39.1485 8.71316 39.2083 9.23721 39.4451C9.76126 39.6818 10.21 40.085 10.5266 40.6035C10.8433 41.122 11.0136 41.7326 11.0161 42.3581C11.0186 42.9836 10.8532 43.5958 10.5407 44.1174C10.2282 44.639 9.78269 45.0465 9.26055 45.2884C9.16643 45.3319 9.07032 45.3699 8.97261 45.4023ZM7.57458 40.2342C7.50558 40.2571 7.43772 40.2839 7.37126 40.3147C6.87741 40.5438 6.48613 40.9802 6.28342 41.5279C6.08071 42.0757 6.08316 42.6899 6.29022 43.2356C6.44124 43.6335 6.69336 43.9744 7.01609 44.2173C7.33882 44.4601 7.71833 44.5945 8.10873 44.6041C8.49912 44.6136 8.88366 44.4981 9.21585 44.2713C9.54803 44.0445 9.81362 43.7163 9.98048 43.3263C10.1474 42.9363 10.2083 42.5012 10.1561 42.0737C10.1038 41.6462 9.94059 41.2446 9.68607 40.9174C9.43155 40.5902 9.09667 40.3516 8.72195 40.2302C8.34722 40.1089 7.9487 40.1101 7.57458 40.2337V40.2342Z" fill="#2F2B2F"/>
<path d="M8.97261 45.4023C8.29591 45.6255 7.56839 45.5645 6.92994 45.231C6.2915 44.8975 5.78718 44.315 5.51396 43.5956C5.2949 43.0188 5.23558 42.3832 5.34351 41.7692C5.45144 41.1552 5.72177 40.5904 6.12031 40.1461C6.51885 39.7018 7.0277 39.3981 7.58251 39.2733C8.13732 39.1485 8.71316 39.2083 9.23721 39.4451C9.76126 39.6818 10.21 40.085 10.5266 40.6035C10.8433 41.122 11.0136 41.7326 11.0161 42.3581C11.0186 42.9836 10.8532 43.5958 10.5407 44.1174C10.2282 44.639 9.78269 45.0465 9.26055 45.2884C9.16643 45.3319 9.07032 45.3699 8.97261 45.4023ZM7.57458 40.2342C7.50558 40.2571 7.43772 40.2839 7.37126 40.3147C6.87741 40.5438 6.48613 40.9802 6.28342 41.5279C6.08071 42.0757 6.08316 42.6899 6.29022 43.2356C6.44124 43.6335 6.69336 43.9744 7.01609 44.2173C7.33882 44.4601 7.71833 44.5945 8.10873 44.6041C8.49912 44.6136 8.88366 44.4981 9.21585 44.2713C9.54803 44.0445 9.81362 43.7163 9.98048 43.3263C10.1474 42.9363 10.2083 42.5012 10.1561 42.0737C10.1038 41.6462 9.94059 41.2446 9.68607 40.9174C9.43155 40.5902 9.09667 40.3516 8.72195 40.2302C8.34722 40.1089 7.9487 40.1101 7.57458 40.2337V40.2342Z" fill="black" fill-opacity="0.2"/>
<path d="M8.97261 45.4023C8.29591 45.6255 7.56839 45.5645 6.92994 45.231C6.2915 44.8975 5.78718 44.315 5.51396 43.5956C5.2949 43.0188 5.23558 42.3832 5.34351 41.7692C5.45144 41.1552 5.72177 40.5904 6.12031 40.1461C6.51885 39.7018 7.0277 39.3981 7.58251 39.2733C8.13732 39.1485 8.71316 39.2083 9.23721 39.4451C9.76126 39.6818 10.21 40.085 10.5266 40.6035C10.8433 41.122 11.0136 41.7326 11.0161 42.3581C11.0186 42.9836 10.8532 43.5958 10.5407 44.1174C10.2282 44.639 9.78269 45.0465 9.26055 45.2884C9.16643 45.3319 9.07032 45.3699 8.97261 45.4023ZM7.57458 40.2342C7.50558 40.2571 7.43772 40.2839 7.37126 40.3147C6.87741 40.5438 6.48613 40.9802 6.28342 41.5279C6.08071 42.0757 6.08316 42.6899 6.29022 43.2356C6.44124 43.6335 6.69336 43.9744 7.01609 44.2173C7.33882 44.4601 7.71833 44.5945 8.10873 44.6041C8.49912 44.6136 8.88366 44.4981 9.21585 44.2713C9.54803 44.0445 9.81362 43.7163 9.98048 43.3263C10.1474 42.9363 10.2083 42.5012 10.1561 42.0737C10.1038 41.6462 9.94059 41.2446 9.68607 40.9174C9.43155 40.5902 9.09667 40.3516 8.72195 40.2302C8.34722 40.1089 7.9487 40.1101 7.57458 40.2337V40.2342Z" fill="black" fill-opacity="0.2"/>
<path d="M8.15534 48.6911C10.2227 48.6911 11.8986 47.4545 11.8986 45.9292C11.8986 44.4038 10.2227 43.1672 8.15534 43.1672C6.08801 43.1672 4.41211 44.4038 4.41211 45.9292C4.41211 47.4545 6.08801 48.6911 8.15534 48.6911Z" fill="#EEC39A"/>
<path d="M9.81288 48.8944C9.2762 49.0696 8.71937 49.1579 8.15974 49.1567C5.82423 49.1567 3.99219 47.7429 3.99219 45.9334C3.99219 44.1239 5.81876 42.705 8.15343 42.7022C9.17131 42.6807 10.1728 42.9878 11.0349 43.5858C11.4222 43.8087 11.7467 44.1445 11.9733 44.5568C12.2 44.9691 12.32 45.4421 12.3204 45.9245C12.3208 46.4068 12.2015 46.8801 11.9756 47.2928C11.7496 47.7055 11.4256 48.042 11.0387 48.2656C10.6605 48.5411 10.2474 48.753 9.81288 48.8944ZM6.75583 43.8537C5.63101 44.2257 4.8337 45.0289 4.83412 45.9311C4.83412 47.176 6.35675 48.2266 8.15974 48.2247C9.01144 48.2445 9.84991 47.9898 10.5727 47.4918C10.8438 47.3538 11.0734 47.1329 11.2342 46.8552C11.3951 46.5774 11.4804 46.2545 11.4802 45.9248C11.4799 45.5951 11.394 45.2724 11.2327 44.995C11.0714 44.7176 10.8415 44.4971 10.5702 44.3597C9.84686 43.8627 9.00798 43.6096 8.15638 43.6314C7.68224 43.63 7.21044 43.7049 6.75583 43.8537Z" fill="#2F2B2F"/>
<path d="M9.81288 48.8944C9.2762 49.0696 8.71937 49.1579 8.15974 49.1567C5.82423 49.1567 3.99219 47.7429 3.99219 45.9334C3.99219 44.1239 5.81876 42.705 8.15343 42.7022C9.17131 42.6807 10.1728 42.9878 11.0349 43.5858C11.4222 43.8087 11.7467 44.1445 11.9733 44.5568C12.2 44.9691 12.32 45.4421 12.3204 45.9245C12.3208 46.4068 12.2015 46.8801 11.9756 47.2928C11.7496 47.7055 11.4256 48.042 11.0387 48.2656C10.6605 48.5411 10.2474 48.753 9.81288 48.8944ZM6.75583 43.8537C5.63101 44.2257 4.8337 45.0289 4.83412 45.9311C4.83412 47.176 6.35675 48.2266 8.15974 48.2247C9.01144 48.2445 9.84991 47.9898 10.5727 47.4918C10.8438 47.3538 11.0734 47.1329 11.2342 46.8552C11.3951 46.5774 11.4804 46.2545 11.4802 45.9248C11.4799 45.5951 11.394 45.2724 11.2327 44.995C11.0714 44.7176 10.8415 44.4971 10.5702 44.3597C9.84686 43.8627 9.00798 43.6096 8.15638 43.6314C7.68224 43.63 7.21044 43.7049 6.75583 43.8537Z" fill="black" fill-opacity="0.2"/>
<path d="M9.81288 48.8944C9.2762 49.0696 8.71937 49.1579 8.15974 49.1567C5.82423 49.1567 3.99219 47.7429 3.99219 45.9334C3.99219 44.1239 5.81876 42.705 8.15343 42.7022C9.17131 42.6807 10.1728 42.9878 11.0349 43.5858C11.4222 43.8087 11.7467 44.1445 11.9733 44.5568C12.2 44.9691 12.32 45.4421 12.3204 45.9245C12.3208 46.4068 12.2015 46.8801 11.9756 47.2928C11.7496 47.7055 11.4256 48.042 11.0387 48.2656C10.6605 48.5411 10.2474 48.753 9.81288 48.8944ZM6.75583 43.8537C5.63101 44.2257 4.8337 45.0289 4.83412 45.9311C4.83412 47.176 6.35675 48.2266 8.15974 48.2247C9.01144 48.2445 9.84991 47.9898 10.5727 47.4918C10.8438 47.3538 11.0734 47.1329 11.2342 46.8552C11.3951 46.5774 11.4804 46.2545 11.4802 45.9248C11.4799 45.5951 11.394 45.2724 11.2327 44.995C11.0714 44.7176 10.8415 44.4971 10.5702 44.3597C9.84686 43.8627 9.00798 43.6096 8.15638 43.6314C7.68224 43.63 7.21044 43.7049 6.75583 43.8537Z" fill="black" fill-opacity="0.2"/>
<path d="M9.07344 48.6069L8.98504 43.2356L7.77602 43.1816L7.69141 48.6697L9.07344 48.6069Z" fill="#2F2B2F"/>
<path d="M9.07344 48.6069L8.98504 43.2356L7.77602 43.1816L7.69141 48.6697L9.07344 48.6069Z" fill="black" fill-opacity="0.2"/>
<path d="M9.07344 48.6069L8.98504 43.2356L7.77602 43.1816L7.69141 48.6697L9.07344 48.6069Z" fill="black" fill-opacity="0.2"/>
<path d="M3.18918 47.098C3.40261 47.098 3.57563 46.9068 3.57563 46.6711C3.57563 46.4353 3.40261 46.2441 3.18918 46.2441C2.97575 46.2441 2.80273 46.4353 2.80273 46.6711C2.80273 46.9068 2.97575 47.098 3.18918 47.098Z" fill="#2F2B2F"/>
<path d="M3.18918 47.098C3.40261 47.098 3.57563 46.9068 3.57563 46.6711C3.57563 46.4353 3.40261 46.2441 3.18918 46.2441C2.97575 46.2441 2.80273 46.4353 2.80273 46.6711C2.80273 46.9068 2.97575 47.098 3.18918 47.098Z" fill="black" fill-opacity="0.2"/>
<path d="M3.18918 47.098C3.40261 47.098 3.57563 46.9068 3.57563 46.6711C3.57563 46.4353 3.40261 46.2441 3.18918 46.2441C2.97575 46.2441 2.80273 46.4353 2.80273 46.6711C2.80273 46.9068 2.97575 47.098 3.18918 47.098Z" fill="black" fill-opacity="0.2"/>
<path d="M3.49191 44.8135C3.70534 44.8135 3.87836 44.6224 3.87836 44.3866C3.87836 44.1509 3.70534 43.9597 3.49191 43.9597C3.27849 43.9597 3.10547 44.1509 3.10547 44.3866C3.10547 44.6224 3.27849 44.8135 3.49191 44.8135Z" fill="#2F2B2F"/>
<path d="M3.49191 44.8135C3.70534 44.8135 3.87836 44.6224 3.87836 44.3866C3.87836 44.1509 3.70534 43.9597 3.49191 43.9597C3.27849 43.9597 3.10547 44.1509 3.10547 44.3866C3.10547 44.6224 3.27849 44.8135 3.49191 44.8135Z" fill="black" fill-opacity="0.2"/>
<path d="M3.49191 44.8135C3.70534 44.8135 3.87836 44.6224 3.87836 44.3866C3.87836 44.1509 3.70534 43.9597 3.49191 43.9597C3.27849 43.9597 3.10547 44.1509 3.10547 44.3866C3.10547 44.6224 3.27849 44.8135 3.49191 44.8135Z" fill="black" fill-opacity="0.2"/>
<path d="M128.535 61.7423C128.445 61.7423 128.357 61.7103 128.285 61.6511C128.213 61.5919 128.159 61.5086 128.133 61.4135C126.736 55.6532 126.364 49.6487 127.036 43.7318C128.124 35.0819 132.442 23.7296 146.834 18.7587C148.859 18.0394 150.936 17.5134 153.042 17.1864C153.72 12.5075 156.3 7.43194 162.069 3.93012C175.777 -4.39054 185.036 3.0749 185.128 3.15116C185.217 3.22517 185.276 3.33534 185.292 3.45744C185.308 3.57953 185.279 3.70356 185.212 3.80223C185.145 3.9009 185.045 3.96614 184.935 3.98358C184.824 4.00102 184.712 3.96925 184.623 3.89524C184.535 3.82269 175.686 -3.27442 162.475 4.74582C157.084 8.01837 154.617 12.7154 153.915 17.0757C160.263 16.3851 163.302 18.7243 164.667 20.491C165.511 21.5534 166.053 22.8667 166.227 24.2674C166.4 25.668 166.196 27.0939 165.641 28.3675C165.202 29.397 164.491 30.2552 163.601 30.8288C162.712 31.4025 161.686 31.6646 160.659 31.5806C157.114 31.3508 154.18 28.0564 153.186 23.1873C152.858 21.5391 152.77 19.8435 152.927 18.1648C150.946 18.4792 148.992 18.9756 147.086 19.6488C135.869 23.5231 129.405 31.6703 127.869 43.8625C127.211 49.6451 127.574 55.5137 128.938 61.1437C128.957 61.2133 128.961 61.2868 128.95 61.3585C128.939 61.4302 128.913 61.498 128.874 61.5565C128.835 61.615 128.784 61.6625 128.725 61.6952C128.666 61.728 128.601 61.745 128.535 61.7451V61.7423ZM153.786 18.0486C153.61 19.6953 153.685 21.3628 154.007 22.9823C154.917 27.4365 157.547 30.4468 160.708 30.6519C161.57 30.72 162.43 30.499 163.175 30.0176C163.921 29.5363 164.518 28.8172 164.887 27.9546C165.369 26.8439 165.543 25.6014 165.39 24.3818C165.237 23.1622 164.762 22.0193 164.025 21.0956C162.057 18.5438 158.465 17.5133 153.786 18.0486Z" fill="#2F2B2F"/>
<path d="M128.535 61.7423C128.445 61.7423 128.357 61.7103 128.285 61.6511C128.213 61.5919 128.159 61.5086 128.133 61.4135C126.736 55.6532 126.364 49.6487 127.036 43.7318C128.124 35.0819 132.442 23.7296 146.834 18.7587C148.859 18.0394 150.936 17.5134 153.042 17.1864C153.72 12.5075 156.3 7.43194 162.069 3.93012C175.777 -4.39054 185.036 3.0749 185.128 3.15116C185.217 3.22517 185.276 3.33534 185.292 3.45744C185.308 3.57953 185.279 3.70356 185.212 3.80223C185.145 3.9009 185.045 3.96614 184.935 3.98358C184.824 4.00102 184.712 3.96925 184.623 3.89524C184.535 3.82269 175.686 -3.27442 162.475 4.74582C157.084 8.01837 154.617 12.7154 153.915 17.0757C160.263 16.3851 163.302 18.7243 164.667 20.491C165.511 21.5534 166.053 22.8667 166.227 24.2674C166.4 25.668 166.196 27.0939 165.641 28.3675C165.202 29.397 164.491 30.2552 163.601 30.8288C162.712 31.4025 161.686 31.6646 160.659 31.5806C157.114 31.3508 154.18 28.0564 153.186 23.1873C152.858 21.5391 152.77 19.8435 152.927 18.1648C150.946 18.4792 148.992 18.9756 147.086 19.6488C135.869 23.5231 129.405 31.6703 127.869 43.8625C127.211 49.6451 127.574 55.5137 128.938 61.1437C128.957 61.2133 128.961 61.2868 128.95 61.3585C128.939 61.4302 128.913 61.498 128.874 61.5565C128.835 61.615 128.784 61.6625 128.725 61.6952C128.666 61.728 128.601 61.745 128.535 61.7451V61.7423ZM153.786 18.0486C153.61 19.6953 153.685 21.3628 154.007 22.9823C154.917 27.4365 157.547 30.4468 160.708 30.6519C161.57 30.72 162.43 30.499 163.175 30.0176C163.921 29.5363 164.518 28.8172 164.887 27.9546C165.369 26.8439 165.543 25.6014 165.39 24.3818C165.237 23.1622 164.762 22.0193 164.025 21.0956C162.057 18.5438 158.465 17.5133 153.786 18.0486Z" fill="black" fill-opacity="0.2"/>
<path d="M128.535 61.7423C128.445 61.7423 128.357 61.7103 128.285 61.6511C128.213 61.5919 128.159 61.5086 128.133 61.4135C126.736 55.6532 126.364 49.6487 127.036 43.7318C128.124 35.0819 132.442 23.7296 146.834 18.7587C148.859 18.0394 150.936 17.5134 153.042 17.1864C153.72 12.5075 156.3 7.43194 162.069 3.93012C175.777 -4.39054 185.036 3.0749 185.128 3.15116C185.217 3.22517 185.276 3.33534 185.292 3.45744C185.308 3.57953 185.279 3.70356 185.212 3.80223C185.145 3.9009 185.045 3.96614 184.935 3.98358C184.824 4.00102 184.712 3.96925 184.623 3.89524C184.535 3.82269 175.686 -3.27442 162.475 4.74582C157.084 8.01837 154.617 12.7154 153.915 17.0757C160.263 16.3851 163.302 18.7243 164.667 20.491C165.511 21.5534 166.053 22.8667 166.227 24.2674C166.4 25.668 166.196 27.0939 165.641 28.3675C165.202 29.397 164.491 30.2552 163.601 30.8288C162.712 31.4025 161.686 31.6646 160.659 31.5806C157.114 31.3508 154.18 28.0564 153.186 23.1873C152.858 21.5391 152.77 19.8435 152.927 18.1648C150.946 18.4792 148.992 18.9756 147.086 19.6488C135.869 23.5231 129.405 31.6703 127.869 43.8625C127.211 49.6451 127.574 55.5137 128.938 61.1437C128.957 61.2133 128.961 61.2868 128.95 61.3585C128.939 61.4302 128.913 61.498 128.874 61.5565C128.835 61.615 128.784 61.6625 128.725 61.6952C128.666 61.728 128.601 61.745 128.535 61.7451V61.7423ZM153.786 18.0486C153.61 19.6953 153.685 21.3628 154.007 22.9823C154.917 27.4365 157.547 30.4468 160.708 30.6519C161.57 30.72 162.43 30.499 163.175 30.0176C163.921 29.5363 164.518 28.8172 164.887 27.9546C165.369 26.8439 165.543 25.6014 165.39 24.3818C165.237 23.1622 164.762 22.0193 164.025 21.0956C162.057 18.5438 158.465 17.5133 153.786 18.0486Z" fill="black" fill-opacity="0.2"/>
<path d="M194.934 7.8515C194.367 7.85018 193.812 7.67178 193.333 7.33687C192.853 7.00197 192.47 6.52421 192.226 5.95875C191.982 5.39328 191.888 4.76316 191.954 4.1411C192.021 3.51905 192.245 2.93041 192.601 2.44314C192.958 1.95587 193.431 1.58982 193.968 1.38724C194.504 1.18466 195.082 1.15382 195.633 1.29826C196.185 1.4427 196.689 1.75654 197.086 2.20356C197.483 2.65058 197.758 3.21256 197.878 3.82464C197.972 4.30983 197.967 4.8122 197.863 5.29495C197.759 5.7777 197.559 6.22862 197.276 6.61468C196.994 7.00074 196.637 7.31217 196.232 7.52618C195.827 7.74018 195.383 7.85133 194.934 7.8515ZM194.94 2.13883C194.492 2.13882 194.056 2.29223 193.69 2.57791C193.325 2.86359 193.048 3.26747 192.899 3.73391C192.75 4.20034 192.736 4.70635 192.858 5.18221C192.98 5.65806 193.233 6.08033 193.582 6.39081C193.93 6.70128 194.357 6.88469 194.804 6.91575C195.251 6.94681 195.696 6.82399 196.077 6.56422C196.458 6.30445 196.756 5.92051 196.932 5.46533C197.107 5.01015 197.15 4.50614 197.055 4.02275C196.952 3.48793 196.686 3.00854 196.301 2.66538C195.916 2.32221 195.435 2.13625 194.94 2.13883Z" fill="#2F2B2F"/>
<path d="M194.934 7.8515C194.367 7.85018 193.812 7.67178 193.333 7.33687C192.853 7.00197 192.47 6.52421 192.226 5.95875C191.982 5.39328 191.888 4.76316 191.954 4.1411C192.021 3.51905 192.245 2.93041 192.601 2.44314C192.958 1.95587 193.431 1.58982 193.968 1.38724C194.504 1.18466 195.082 1.15382 195.633 1.29826C196.185 1.4427 196.689 1.75654 197.086 2.20356C197.483 2.65058 197.758 3.21256 197.878 3.82464C197.972 4.30983 197.967 4.8122 197.863 5.29495C197.759 5.7777 197.559 6.22862 197.276 6.61468C196.994 7.00074 196.637 7.31217 196.232 7.52618C195.827 7.74018 195.383 7.85133 194.934 7.8515ZM194.94 2.13883C194.492 2.13882 194.056 2.29223 193.69 2.57791C193.325 2.86359 193.048 3.26747 192.899 3.73391C192.75 4.20034 192.736 4.70635 192.858 5.18221C192.98 5.65806 193.233 6.08033 193.582 6.39081C193.93 6.70128 194.357 6.88469 194.804 6.91575C195.251 6.94681 195.696 6.82399 196.077 6.56422C196.458 6.30445 196.756 5.92051 196.932 5.46533C197.107 5.01015 197.15 4.50614 197.055 4.02275C196.952 3.48793 196.686 3.00854 196.301 2.66538C195.916 2.32221 195.435 2.13625 194.94 2.13883Z" fill="black" fill-opacity="0.2"/>
<path d="M194.934 7.8515C194.367 7.85018 193.812 7.67178 193.333 7.33687C192.853 7.00197 192.47 6.52421 192.226 5.95875C191.982 5.39328 191.888 4.76316 191.954 4.1411C192.021 3.51905 192.245 2.93041 192.601 2.44314C192.958 1.95587 193.431 1.58982 193.968 1.38724C194.504 1.18466 195.082 1.15382 195.633 1.29826C196.185 1.4427 196.689 1.75654 197.086 2.20356C197.483 2.65058 197.758 3.21256 197.878 3.82464C197.972 4.30983 197.967 4.8122 197.863 5.29495C197.759 5.7777 197.559 6.22862 197.276 6.61468C196.994 7.00074 196.637 7.31217 196.232 7.52618C195.827 7.74018 195.383 7.85133 194.934 7.8515ZM194.94 2.13883C194.492 2.13882 194.056 2.29223 193.69 2.57791C193.325 2.86359 193.048 3.26747 192.899 3.73391C192.75 4.20034 192.736 4.70635 192.858 5.18221C192.98 5.65806 193.233 6.08033 193.582 6.39081C193.93 6.70128 194.357 6.88469 194.804 6.91575C195.251 6.94681 195.696 6.82399 196.077 6.56422C196.458 6.30445 196.756 5.92051 196.932 5.46533C197.107 5.01015 197.15 4.50614 197.055 4.02275C196.952 3.48793 196.686 3.00854 196.301 2.66538C195.916 2.32221 195.435 2.13625 194.94 2.13883Z" fill="black" fill-opacity="0.2"/>
<path d="M193.665 15.4416C192.894 15.4416 192.151 15.1148 191.591 14.5284C191.031 13.9421 190.696 13.1409 190.655 12.2898C190.613 11.4387 190.869 10.6024 191.369 9.9531C191.869 9.30382 192.575 8.89096 193.342 8.79951C194.109 8.70806 194.879 8.94498 195.492 9.4615C196.106 9.97801 196.517 10.7348 196.641 11.5761C196.765 12.4174 196.592 13.2792 196.158 13.984C195.725 14.6888 195.063 15.183 194.309 15.3649C194.097 15.4159 193.882 15.4416 193.665 15.4416ZM193.676 9.72852C193.52 9.72859 193.365 9.74715 193.213 9.78386C192.675 9.91433 192.203 10.2675 191.894 10.7708C191.584 11.274 191.462 11.889 191.55 12.4892C191.639 13.0895 191.933 13.6293 192.371 13.9976C192.809 14.366 193.358 14.5348 193.906 14.4694C194.453 14.404 194.957 14.1093 195.314 13.646C195.67 13.1827 195.853 12.5859 195.823 11.9786C195.794 11.3713 195.555 10.7995 195.155 10.381C194.756 9.96242 194.226 9.72892 193.676 9.72852Z" fill="#2F2B2F"/>
<path d="M193.665 15.4416C192.894 15.4416 192.151 15.1148 191.591 14.5284C191.031 13.9421 190.696 13.1409 190.655 12.2898C190.613 11.4387 190.869 10.6024 191.369 9.9531C191.869 9.30382 192.575 8.89096 193.342 8.79951C194.109 8.70806 194.879 8.94498 195.492 9.4615C196.106 9.97801 196.517 10.7348 196.641 11.5761C196.765 12.4174 196.592 13.2792 196.158 13.984C195.725 14.6888 195.063 15.183 194.309 15.3649C194.097 15.4159 193.882 15.4416 193.665 15.4416ZM193.676 9.72852C193.52 9.72859 193.365 9.74715 193.213 9.78386C192.675 9.91433 192.203 10.2675 191.894 10.7708C191.584 11.274 191.462 11.889 191.55 12.4892C191.639 13.0895 191.933 13.6293 192.371 13.9976C192.809 14.366 193.358 14.5348 193.906 14.4694C194.453 14.404 194.957 14.1093 195.314 13.646C195.67 13.1827 195.853 12.5859 195.823 11.9786C195.794 11.3713 195.555 10.7995 195.155 10.381C194.756 9.96242 194.226 9.72892 193.676 9.72852Z" fill="black" fill-opacity="0.2"/>
<path d="M193.665 15.4416C192.894 15.4416 192.151 15.1148 191.591 14.5284C191.031 13.9421 190.696 13.1409 190.655 12.2898C190.613 11.4387 190.869 10.6024 191.369 9.9531C191.869 9.30382 192.575 8.89096 193.342 8.79951C194.109 8.70806 194.879 8.94498 195.492 9.4615C196.106 9.97801 196.517 10.7348 196.641 11.5761C196.765 12.4174 196.592 13.2792 196.158 13.984C195.725 14.6888 195.063 15.183 194.309 15.3649C194.097 15.4159 193.882 15.4416 193.665 15.4416ZM193.676 9.72852C193.52 9.72859 193.365 9.74715 193.213 9.78386C192.675 9.91433 192.203 10.2675 191.894 10.7708C191.584 11.274 191.462 11.889 191.55 12.4892C191.639 13.0895 191.933 13.6293 192.371 13.9976C192.809 14.366 193.358 14.5348 193.906 14.4694C194.453 14.404 194.957 14.1093 195.314 13.646C195.67 13.1827 195.853 12.5859 195.823 11.9786C195.794 11.3713 195.555 10.7995 195.155 10.381C194.756 9.96242 194.226 9.72892 193.676 9.72852Z" fill="black" fill-opacity="0.2"/>
<path d="M198.187 9.21015C198.452 7.6217 196.922 5.97824 194.769 5.53939C192.616 5.10054 190.656 6.03248 190.391 7.62093C190.125 9.20938 191.655 10.8528 193.808 11.2917C195.961 11.7305 197.921 10.7986 198.187 9.21015Z" fill="#EEC39A"/>
<path d="M194.869 11.866C194.488 11.8653 194.107 11.8264 193.732 11.7497C192.674 11.5557 191.689 11.0246 190.9 10.2216C190.554 9.89585 190.288 9.47915 190.127 9.00998C189.966 8.54081 189.914 8.03431 189.977 7.5373C190.079 7.04826 190.291 6.59548 190.593 6.22078C190.895 5.84607 191.278 5.56153 191.706 5.39342C192.707 4.97561 193.793 4.8682 194.846 5.08278C195.898 5.29737 196.878 5.8258 197.678 6.61092C198.024 6.93664 198.29 7.35334 198.451 7.82251C198.612 8.29168 198.664 8.79818 198.601 9.29519C198.499 9.78423 198.287 10.237 197.985 10.6117C197.683 10.9864 197.3 11.271 196.872 11.4391C196.237 11.7293 195.556 11.8745 194.869 11.866ZM193.706 5.89568C193.134 5.88765 192.567 6.00739 192.039 6.24772C191.74 6.35833 191.47 6.54962 191.255 6.80427C191.039 7.05892 190.885 7.36889 190.805 7.70611C190.771 8.05251 190.815 8.40296 190.934 8.72574C191.053 9.04851 191.243 9.33343 191.486 9.55469C192.167 10.2112 192.996 10.6533 193.884 10.8345C194.773 11.0158 195.69 10.9295 196.538 10.5848C196.837 10.4742 197.107 10.2829 197.322 10.0282C197.537 9.77357 197.692 9.4636 197.771 9.12637C197.806 8.77996 197.762 8.42943 197.643 8.10661C197.524 7.78379 197.334 7.4989 197.09 7.2778C196.42 6.60244 195.586 6.15754 194.691 5.99752C194.367 5.93082 194.038 5.89673 193.708 5.89568H193.706Z" fill="#2F2B2F"/>
<path d="M194.869 11.866C194.488 11.8653 194.107 11.8264 193.732 11.7497C192.674 11.5557 191.689 11.0246 190.9 10.2216C190.554 9.89585 190.288 9.47915 190.127 9.00998C189.966 8.54081 189.914 8.03431 189.977 7.5373C190.079 7.04826 190.291 6.59548 190.593 6.22078C190.895 5.84607 191.278 5.56153 191.706 5.39342C192.707 4.97561 193.793 4.8682 194.846 5.08278C195.898 5.29737 196.878 5.8258 197.678 6.61092C198.024 6.93664 198.29 7.35334 198.451 7.82251C198.612 8.29168 198.664 8.79818 198.601 9.29519C198.499 9.78423 198.287 10.237 197.985 10.6117C197.683 10.9864 197.3 11.271 196.872 11.4391C196.237 11.7293 195.556 11.8745 194.869 11.866ZM193.706 5.89568C193.134 5.88765 192.567 6.00739 192.039 6.24772C191.74 6.35833 191.47 6.54962 191.255 6.80427C191.039 7.05892 190.885 7.36889 190.805 7.70611C190.771 8.05251 190.815 8.40296 190.934 8.72574C191.053 9.04851 191.243 9.33343 191.486 9.55469C192.167 10.2112 192.996 10.6533 193.884 10.8345C194.773 11.0158 195.69 10.9295 196.538 10.5848C196.837 10.4742 197.107 10.2829 197.322 10.0282C197.537 9.77357 197.692 9.4636 197.771 9.12637C197.806 8.77996 197.762 8.42943 197.643 8.10661C197.524 7.78379 197.334 7.4989 197.09 7.2778C196.42 6.60244 195.586 6.15754 194.691 5.99752C194.367 5.93082 194.038 5.89673 193.708 5.89568H193.706Z" fill="black" fill-opacity="0.2"/>
<path d="M194.869 11.866C194.488 11.8653 194.107 11.8264 193.732 11.7497C192.674 11.5557 191.689 11.0246 190.9 10.2216C190.554 9.89585 190.288 9.47915 190.127 9.00998C189.966 8.54081 189.914 8.03431 189.977 7.5373C190.079 7.04826 190.291 6.59548 190.593 6.22078C190.895 5.84607 191.278 5.56153 191.706 5.39342C192.707 4.97561 193.793 4.8682 194.846 5.08278C195.898 5.29737 196.878 5.8258 197.678 6.61092C198.024 6.93664 198.29 7.35334 198.451 7.82251C198.612 8.29168 198.664 8.79818 198.601 9.29519C198.499 9.78423 198.287 10.237 197.985 10.6117C197.683 10.9864 197.3 11.271 196.872 11.4391C196.237 11.7293 195.556 11.8745 194.869 11.866ZM193.706 5.89568C193.134 5.88765 192.567 6.00739 192.039 6.24772C191.74 6.35833 191.47 6.54962 191.255 6.80427C191.039 7.05892 190.885 7.36889 190.805 7.70611C190.771 8.05251 190.815 8.40296 190.934 8.72574C191.053 9.04851 191.243 9.33343 191.486 9.55469C192.167 10.2112 192.996 10.6533 193.884 10.8345C194.773 11.0158 195.69 10.9295 196.538 10.5848C196.837 10.4742 197.107 10.2829 197.322 10.0282C197.537 9.77357 197.692 9.4636 197.771 9.12637C197.806 8.77996 197.762 8.42943 197.643 8.10661C197.524 7.78379 197.334 7.4989 197.09 7.2778C196.42 6.60244 195.586 6.15754 194.691 5.99752C194.367 5.93082 194.038 5.89673 193.708 5.89568H193.706Z" fill="black" fill-opacity="0.2"/>
<path d="M193.802 5.43237L192.955 11.0437L194.204 11.358L195.251 5.66164L193.802 5.43237Z" fill="#2F2B2F"/>
<path d="M193.802 5.43237L192.955 11.0437L194.204 11.358L195.251 5.66164L193.802 5.43237Z" fill="black" fill-opacity="0.2"/>
<path d="M193.802 5.43237L192.955 11.0437L194.204 11.358L195.251 5.66164L193.802 5.43237Z" fill="black" fill-opacity="0.2"/>
<path d="M198.878 11.4692C199.104 11.4692 199.287 11.2669 199.287 11.0172C199.287 10.7676 199.104 10.5652 198.878 10.5652C198.652 10.5652 198.469 10.7676 198.469 11.0172C198.469 11.2669 198.652 11.4692 198.878 11.4692Z" fill="#2F2B2F"/>
<path d="M198.878 11.4692C199.104 11.4692 199.287 11.2669 199.287 11.0172C199.287 10.7676 199.104 10.5652 198.878 10.5652C198.652 10.5652 198.469 10.7676 198.469 11.0172C198.469 11.2669 198.652 11.4692 198.878 11.4692Z" fill="black" fill-opacity="0.2"/>
<path d="M198.878 11.4692C199.104 11.4692 199.287 11.2669 199.287 11.0172C199.287 10.7676 199.104 10.5652 198.878 10.5652C198.652 10.5652 198.469 10.7676 198.469 11.0172C198.469 11.2669 198.652 11.4692 198.878 11.4692Z" fill="black" fill-opacity="0.2"/>
<path d="M199.591 9.15503C199.817 9.15503 200 8.95265 200 8.703C200 8.45336 199.817 8.25098 199.591 8.25098C199.365 8.25098 199.182 8.45336 199.182 8.703C199.182 8.95265 199.365 9.15503 199.591 9.15503Z" fill="#2F2B2F"/>
<path d="M199.591 9.15503C199.817 9.15503 200 8.95265 200 8.703C200 8.45336 199.817 8.25098 199.591 8.25098C199.365 8.25098 199.182 8.45336 199.182 8.703C199.182 8.95265 199.365 9.15503 199.591 9.15503Z" fill="black" fill-opacity="0.2"/>
<path d="M199.591 9.15503C199.817 9.15503 200 8.95265 200 8.703C200 8.45336 199.817 8.25098 199.591 8.25098C199.365 8.25098 199.182 8.45336 199.182 8.703C199.182 8.95265 199.365 9.15503 199.591 9.15503Z" fill="black" fill-opacity="0.2"/>
</svg>
