<svg width="32" height="32" viewBox="0 0 32 32" fill="none" xmlns="http://www.w3.org/2000/svg">
<g id="fluent-mdl2:passive-authentication">
<g clip-path="url(#clip0_32_4130)">
<path id="Vector" d="M21 23.5938L26.2969 18.2969L27.7031 19.7031L21 26.4062L17.2969 22.7031L18.7031 21.2969L21 23.5938ZM32 12V32H12V19.7969C11.3646 19.9323 10.6979 20 10 20C8.61458 20 7.31771 19.7396 6.10938 19.2188C4.90104 18.6979 3.83854 17.9844 2.92188 17.0781C2.00521 16.1719 1.29167 15.1146 0.78125 13.9062C0.270833 12.6979 0.0104167 11.3958 0 10C0 8.61458 0.260417 7.31771 0.78125 6.10938C1.30208 4.90104 2.01562 3.83854 2.92188 2.92188C3.82812 2.00521 4.88542 1.29167 6.09375 0.78125C7.30208 0.270833 8.60417 0.0104167 10 0C11.3854 0 12.6823 0.260417 13.8906 0.78125C15.099 1.30208 16.1615 2.01562 17.0781 2.92188C17.9948 3.82812 18.7083 4.88542 19.2188 6.09375C19.7292 7.30208 19.9896 8.60417 20 10C20 10.6979 19.9323 11.3646 19.7969 12H32ZM2 10C2 11.1042 2.20833 12.1406 2.625 13.1094C3.04167 14.0781 3.61458 14.9219 4.34375 15.6406C5.07292 16.3594 5.92188 16.9323 6.89062 17.3594C7.85938 17.7865 8.89583 18 10 18C11.1042 18 12.1406 17.7917 13.1094 17.375C14.0781 16.9583 14.9219 16.3854 15.6406 15.6562C16.3594 14.9271 16.9323 14.0781 17.3594 13.1094C17.7865 12.1406 18 11.1042 18 10C18 8.89583 17.7917 7.85938 17.375 6.89062C16.9583 5.92188 16.3854 5.07812 15.6562 4.35938C14.9271 3.64062 14.0781 3.06771 13.1094 2.64062C12.1406 2.21354 11.1042 2 10 2C8.89583 2 7.85938 2.20833 6.89062 2.625C5.92188 3.04167 5.07812 3.61458 4.35938 4.34375C3.64062 5.07292 3.06771 5.92188 2.64062 6.89062C2.21354 7.85938 2 8.89583 2 10ZM30 14H19.1719C18.6406 15.1771 17.9427 16.1979 17.0781 17.0625C16.2135 17.9271 15.1875 18.6302 14 19.1719V30H30V14ZM15.7031 7.70312L9 14.4062L5.29688 10.7031L6.70312 9.29688L9 11.5938L14.2969 6.29688L15.7031 7.70312Z" fill="#0D2C41"/>
</g>
</g>
<defs>
<clipPath id="clip0_32_4130">
<rect width="32" height="32" rx="16" fill="white"/>
</clipPath>
</defs>
</svg>
