<svg width="113" height="83" viewBox="0 0 113 83" fill="none" xmlns="http://www.w3.org/2000/svg">
<path d="M89.7344 13.2393C89.6837 13.7238 89.6537 14.2765 89.6406 14.8759L82.4519 18.1618C81.445 18.0039 76.4519 18.282 69.0044 14.7647C67.1162 13.8728 65.2713 13.399 63.4994 13.399C61.8959 13.4011 60.3158 13.7671 58.8887 14.4668C57.0081 14.0773 54.2988 13.0795 52.7144 13.0831C49.1294 13.1011 40.9787 15.8953 38.7212 16.1339C36.5125 16.3654 34.2381 16.9469 31.9487 17.8729C27.7881 16.7136 22.5719 14.8203 19.7781 13.7741L0.25 0.151367V43.9572L14.6013 50.493C14.8094 50.2597 15.0475 49.9008 15.3062 49.4558L15.7506 49.6532C15.9681 50.1915 16.2081 50.7281 16.4706 51.2611C14.8956 53.7987 14.7081 56.6574 15.9662 59.1429C17.0444 61.2695 19.0525 62.7626 21.2894 63.1807C21.4112 64.5051 21.8762 65.7865 22.66 66.8973C24.0662 68.8839 26.3012 70.0702 28.6431 70.0702C28.855 70.0702 29.0669 70.0612 29.2769 70.0378C29.6106 70.901 30.1 71.705 30.7356 72.4013C32.1494 73.9572 34.1294 74.8491 36.1656 74.8491C36.3156 74.8491 36.4619 74.8455 36.61 74.8348C36.8688 75.7751 37.3094 76.6652 37.9244 77.4585C39.34 79.2889 41.5244 80.3782 43.7706 80.3782C45.1656 80.3782 46.4987 79.9691 47.6744 79.2028C49.9469 80.599 51.9231 81.5806 53.6763 82.1836C54.5556 82.5264 55.4706 82.7022 56.4044 82.7022C58.6131 82.7022 60.7562 81.7152 62.2862 79.9888C62.8544 79.3464 63.3156 78.6285 63.6531 77.8604C64.3141 78.0519 65.0007 78.1498 65.6913 78.1512C68.0387 78.1512 70.2644 77.0511 71.8037 75.1273C72.535 74.2156 73.0645 73.1708 73.36 72.0568C73.5212 72.0675 73.6806 72.0729 73.84 72.0729C76.5531 72.0729 79.15 70.5493 80.6106 68.0961C81.3764 66.82 81.7828 65.3755 81.79 63.904C84.4712 63.5217 86.8319 61.6966 87.9813 59.0353C89.1138 56.4134 88.8063 53.5205 87.2256 51.1086L94.5288 47.1695C94.7163 47.7832 94.9 48.3485 95.0781 48.8079L112.75 39.8081V3.09807L89.7344 13.2393ZM89.7325 18.6894C89.8487 20.6312 90.0606 22.8259 90.3344 25.1176C88.8344 22.7057 86.9406 21.6056 84.5894 21.0583L89.7325 18.6894ZM79.93 61.3216C75.9025 59.9954 67.5194 50.563 67.5194 50.563H67.6844C68.5375 50.5056 70.3806 49.646 72.4488 50.0569C69.2012 47.3866 65.6294 49.646 63.1975 48.2624C63.7619 49.9941 66.475 50.5397 67.1706 50.5612L75.2031 59.5018C78.8406 63.5486 76.3075 68.5555 72.6606 69.3523C70.2138 68.2128 63.3044 60.3471 63.3044 60.3471C63.5406 60.3058 64.9413 59.8859 66.3681 60.0653C63.0737 57.7073 59.3388 59.7531 57.1225 58.2726C58.3787 61.2426 62.5169 60.4817 62.95 60.4099L67.2475 65.6609C70.6862 69.8602 67.9844 74.7109 64.3319 75.3678C61.0937 74.2785 58.9919 70.4021 58.9919 70.4021C59.3181 70.3519 60.4094 69.8871 61.9619 70.1025C59.2 67.7856 55.9844 69.8871 54.0513 68.5681C55.2456 71.059 58.2231 70.4919 58.39 70.4739C61.3675 74.9622 58.2794 79.6425 54.5894 79.7824H54.5856L54.5819 79.7842C52.3656 79.4163 50.0444 77.7205 47.4231 75.9797C48.3231 75.025 49.1181 73.3471 49.1181 73.3471C51.7506 68.7852 48.3344 64.751 44.8075 65.0974C47.6688 65.8457 49.8138 69.3415 47.5806 73.2232L46.6 74.8025C45.535 76.6599 43.8719 77.7815 42.6494 77.6433C40.7669 77.4244 38.1138 74.7935 39.2294 71.0823C39.6606 70.7054 43.8194 64.6164 43.8194 64.6164C46.6787 60.2089 43.4688 55.9898 39.9325 56.1334C42.7487 57.0433 44.7231 60.6576 42.295 64.4082L38.9144 69.4528C37.7612 71.2366 36.2687 72.247 34.8456 72.0603C32.6369 71.7732 31.0881 69.1944 31.4425 66.533C31.4237 66.5492 33.8763 63.9237 33.8763 63.9237C37.135 59.8482 34.345 55.2971 30.8144 55.0585C33.5275 56.268 35.1437 60.0797 32.3744 63.5486L31.1781 64.952C29.8656 66.5994 28.285 67.4375 26.9013 67.1073C24.4863 66.5276 23.23 62.2027 24.3719 61.0237C25.27 60.0959 27.7919 57.1581 27.7919 57.1581C31.0487 53.0808 28.2625 48.5316 24.7281 48.2893C27.4431 49.5024 29.0594 53.3141 26.29 56.7848L25.0938 58.1846C23.7738 59.8464 22.1875 60.6809 20.7944 60.3417C17.8919 59.6382 16.4425 55.3492 19.2194 51.8677C19.2194 51.8677 18.2763 48.9999 17.8506 47.7742L16.4519 47.1533C19.7312 39.8404 24.685 23.6999 24.9137 18.3377C27.3288 19.1614 33.7037 20.9165 34.3806 20.9201L34.3769 20.9237C41.2394 18.8599 48.4319 19.0878 51.7131 17.8747C52.7763 17.487 54.8913 17.4619 57.1338 18.6894C55.7331 19.8649 54.4094 21.2646 53.035 22.5693C49.75 25.6901 37.5363 30.557 39.8913 35.6752C41.9238 40.0916 47.6481 44.6104 57.25 37.5164L62.65 36.8057L71.0481 40.7718L81.8106 51.3508C85.6488 55.1159 83.4756 60.2269 79.93 61.3216ZM82.63 49.6657C81.3962 47.4584 77.5506 43.8387 73.9206 40.8794L73.8981 40.8579C75.5725 40.9225 77.3294 38.3419 79.6 38.1427C78.0137 36.9834 75.385 38.3222 74.5656 38.5339C70.0487 39.6968 63.0287 34.2574 63.0287 34.2574L56.3125 35.1834C56.3125 35.1834 48.325 44.5135 41.5956 36.8273C37.9412 32.6531 51.1844 27.2011 54.4469 24.0983C58.6263 20.1233 62.35 15.26 69.2256 18.5728C74.9369 21.3293 77.1869 21.1588 84.8481 22.4347C87.1319 22.817 88.7144 23.8183 90.4112 25.7726C91.21 32.2044 92.5019 39.3379 93.7412 44.3017C93.1019 44.8168 87.6213 48.3449 82.63 49.6657Z" fill="#DDA627"/>
</svg>
