<svg width="32" height="32" viewBox="0 0 32 32" fill="none" xmlns="http://www.w3.org/2000/svg">
<g id="mdi:style">
<path id="Vector" d="M3.37278 26.1993L5.15945 26.946V14.906L1.91945 22.7194C1.37278 24.0794 1.99945 25.6393 3.37278 26.1993ZM29.3728 21.266L22.7594 5.33268C22.5641 4.84941 22.2314 4.43399 21.8025 4.13777C21.3736 3.84156 20.8672 3.67755 20.3461 3.66602C19.9994 3.66602 19.6394 3.71935 19.2928 3.86602L9.46611 7.93268C8.99183 8.13396 8.58523 8.46705 8.29454 8.89244C8.00386 9.31784 7.84129 9.81768 7.82611 10.3327C7.81278 10.666 7.87945 11.0527 7.99945 11.3993L14.6661 27.3327C15.0528 28.3727 16.0394 28.986 17.0794 28.9993C17.4261 28.9993 17.7728 28.9327 18.1061 28.7994L27.9194 24.7327C28.5718 24.4656 29.0913 23.9503 29.3638 23.3002C29.6364 22.6502 29.6396 21.9185 29.3728 21.266ZM10.5061 11.666C10.1525 11.666 9.81335 11.5255 9.5633 11.2755C9.31326 11.0254 9.17278 10.6863 9.17278 10.3327C9.17278 9.97906 9.31326 9.63992 9.5633 9.38987C9.81335 9.13983 10.1525 8.99935 10.5061 8.99935C11.2394 8.99935 11.8394 9.59935 11.8394 10.3327C11.8394 11.066 11.2394 11.666 10.5061 11.666ZM7.83945 26.3327C7.83945 27.0399 8.1204 27.7182 8.6205 28.2183C9.12059 28.7184 9.79887 28.9993 10.5061 28.9993H12.4394L7.83945 17.8793V26.3327Z" fill="#FCCA4D"/>
</g>
</svg>
