<svg width="32" height="32" viewBox="0 0 32 32" fill="none" xmlns="http://www.w3.org/2000/svg">
<path d="M16 24.4137C15.3733 24.4137 14.7733 24.0937 14.36 23.547L13.4 22.267H13.2C10.5067 22.267 8 21.6404 8 17.067V13.5604C8 10.4804 9.58666 8.65368 12.4533 8.40035C12.6667 8.37368 12.92 8.36035 13.2 8.36035H18.8C22.1467 8.36035 24 10.2004 24 13.5604V17.067C24 17.3337 23.9867 17.6004 23.96 17.8404C23.72 20.667 21.8933 22.2537 18.8133 22.2537H18.6133L17.6533 23.5337C17.2267 24.107 16.6267 24.4137 16 24.4137ZM13.2 10.387C13.0133 10.387 12.84 10.387 12.6667 10.4137C10.7867 10.5737 10 11.5204 10 13.587V17.0937C10 19.8537 10.76 20.2937 13.2 20.2937H13.5467C14.0533 20.2937 14.6 20.5604 14.9067 20.9604L15.96 22.3737L17.0933 20.9737C17.4133 20.547 17.92 20.2937 18.4533 20.2937H18.8C20.8667 20.2937 21.8 19.507 21.96 17.667C21.9867 17.4537 21.9867 17.2804 21.9867 17.0937V13.587C21.9867 11.347 21.0267 10.387 18.7867 10.387H13.2Z" fill="#106A5E"/>
<path d="M15.9993 30.3337C8.09268 30.3337 1.66602 23.907 1.66602 16.0003C1.66602 8.09366 8.09268 1.66699 15.9993 1.66699C23.906 1.66699 30.3327 8.09366 30.3327 16.0003C30.3327 23.907 23.906 30.3337 15.9993 30.3337ZM15.9993 3.66699C9.19935 3.66699 3.66602 9.20033 3.66602 16.0003C3.66602 22.8003 9.19935 28.3337 15.9993 28.3337C22.7993 28.3337 28.3327 22.8003 28.3327 16.0003C28.3327 9.20033 22.7993 3.66699 15.9993 3.66699Z" fill="#106A5E"/>
</svg>
