<svg width="91" height="113" viewBox="0 0 91 113" fill="none" xmlns="http://www.w3.org/2000/svg">
<rect x="14.8935" y="76.9042" width="37.2" height="35.164" stroke="#DDA627" stroke-width="0.716638"/>
<path d="M44.1589 87.7582L46.0464 91.1221L50.0833 91.5863L47.1211 94.1125L47.7135 97.8497L44.1589 95.7473L40.6042 97.8497L41.1966 94.1125L38.2344 91.5863L42.3815 91.1221L44.1589 87.7582ZM40.6042 110.184H38.2344V104.577C38.2325 103.091 37.6077 101.666 36.4971 100.615C35.3864 99.564 33.8806 98.9727 32.3099 98.9709H25.2005C23.6298 98.9727 22.124 99.564 21.0134 100.615C19.9027 101.666 19.2779 103.091 19.276 104.577V110.184H16.9062V104.577C16.9088 102.496 17.7834 100.501 19.3384 99.0299C20.8933 97.5585 23.0015 96.7308 25.2005 96.7284H32.3099C34.5089 96.7308 36.6171 97.5585 38.1721 99.0299C39.727 100.501 40.6017 102.496 40.6042 104.577V110.184ZM28.7552 81.0306C29.927 81.0306 31.0724 81.3594 32.0467 81.9755C33.0209 82.5915 33.7803 83.4671 34.2287 84.4915C34.6771 85.5159 34.7944 86.6432 34.5659 87.7307C34.3373 88.8182 33.773 89.8172 32.9444 90.6013C32.1159 91.3853 31.0603 91.9193 29.911 92.1356C28.7618 92.3519 27.5706 92.2409 26.488 91.8166C25.4055 91.3922 24.4802 90.6737 23.8292 89.7517C23.1782 88.8297 22.8307 87.7458 22.8307 86.637C22.8307 85.1501 23.4549 83.7241 24.566 82.6727C25.677 81.6213 27.1839 81.0306 28.7552 81.0306ZM28.7552 78.7881C27.1148 78.7881 25.5111 79.2484 24.1472 80.1109C22.7832 80.9733 21.7201 82.1991 21.0923 83.6333C20.4645 85.0675 20.3003 86.6457 20.6203 88.1682C20.9403 89.6907 21.7303 91.0893 22.8903 92.187C24.0502 93.2847 25.5281 94.0322 27.1371 94.335C28.746 94.6379 30.4137 94.4825 31.9293 93.8884C33.4449 93.2943 34.7403 92.2883 35.6516 90.9976C36.563 89.7068 37.0495 88.1893 37.0495 86.637C37.0495 84.5553 36.1756 82.5589 34.6201 81.087C33.0647 79.615 30.955 78.7881 28.7552 78.7881Z" fill="#DDA627"/>
<rect x="0.358319" y="38.6318" width="37.2" height="35.164" stroke="#DDA627" stroke-width="0.716638"/>
<path d="M29.6237 49.4858L31.5112 52.8496L35.5482 53.3138L32.5859 55.84L33.1784 59.5772L29.6237 57.4748L26.069 59.5772L26.6615 55.84L23.6992 53.3138L27.8464 52.8496L29.6237 49.4858ZM26.069 71.9112H23.6992V66.3048C23.6973 64.8185 23.0725 63.3935 21.9619 62.3425C20.8513 61.2915 19.3454 60.7003 17.7747 60.6985H10.6654C9.09467 60.7003 7.58885 61.2915 6.4782 62.3425C5.36756 63.3935 4.74277 64.8185 4.74089 66.3048V71.9112H2.37109V66.3048C2.3736 64.2239 3.24827 62.2289 4.8032 60.7574C6.35813 59.286 8.46636 58.4583 10.6654 58.4559H17.7747C19.9737 58.4583 22.082 59.286 23.6369 60.7574C25.1918 62.2289 26.0665 64.2239 26.069 66.3048V71.9112ZM14.2201 42.7582C15.3918 42.7582 16.5372 43.087 17.5115 43.703C18.4858 44.319 19.2451 45.1946 19.6936 46.2191C20.142 47.2435 20.2593 48.3707 20.0307 49.4583C19.8021 50.5458 19.2378 51.5447 18.4093 52.3288C17.5807 53.1129 16.5251 53.6468 15.3759 53.8631C14.2266 54.0795 13.0354 53.9684 11.9529 53.5441C10.8703 53.1198 9.94502 52.4012 9.29403 51.4792C8.64304 50.5573 8.29557 49.4733 8.29557 48.3645C8.29557 46.8776 8.91976 45.4516 10.0308 44.4002C11.1419 43.3488 12.6488 42.7582 14.2201 42.7582ZM14.2201 40.5156C12.5796 40.5156 10.976 40.976 9.612 41.8384C8.24802 42.7008 7.18492 43.9267 6.55715 45.3609C5.92937 46.7951 5.76512 48.3732 6.08515 49.8958C6.40519 51.4183 7.19514 52.8168 8.35512 53.9145C9.51509 55.0122 10.993 55.7597 12.6019 56.0626C14.2109 56.3654 15.8786 56.21 17.3941 55.6159C18.9097 55.0219 20.2051 54.0159 21.1165 52.7251C22.0279 51.4344 22.5143 49.9169 22.5143 48.3645C22.5143 46.2829 21.6405 44.2865 20.085 42.8145C18.5295 41.3426 16.4198 40.5156 14.2201 40.5156Z" fill="#DDA627"/>
<path d="M64.9638 71.9221V51.5888H66.481V71.9221H64.9638Z" fill="#DDA627" stroke="#DDA627" stroke-width="0.716638"/>
<path d="M55.9696 62.5091V61.0038H75.4752V62.5091H55.9696Z" fill="#DDA627" stroke="#DDA627" stroke-width="0.716638"/>
<path d="M90.6426 62.1929C90.6426 75.1875 79.5046 85.755 65.7231 85.755C51.9416 85.755 40.8036 75.1875 40.8036 62.1929C40.8036 49.1983 51.9416 38.6308 65.7231 38.6308C79.5046 38.6308 90.6426 49.1983 90.6426 62.1929Z" stroke="#DDA627" stroke-width="0.716638"/>
<rect x="38.2743" y="0.358319" width="37.2" height="35.164" stroke="#DDA627" stroke-width="0.716638"/>
<path d="M67.5378 11.2123L69.4253 14.5762L73.4622 15.0404L70.5 17.5666L71.0924 21.3038L67.5378 19.2014L63.9831 21.3038L64.5755 17.5666L61.6133 15.0404L65.7604 14.5762L67.5378 11.2123ZM63.9831 33.6377H61.6133V28.0314C61.6114 26.545 60.9866 25.1201 59.876 24.0691C58.7653 23.0181 57.2595 22.4268 55.6888 22.425H48.5794C47.0087 22.4268 45.5029 23.0181 44.3923 24.0691C43.2816 25.1201 42.6568 26.545 42.6549 28.0314V33.6377H40.2852V28.0314C40.2877 25.9505 41.1623 23.9554 42.7173 22.484C44.2722 21.0126 46.3804 20.1849 48.5794 20.1825H55.6888C57.8878 20.1849 59.996 21.0126 61.551 22.484C63.1059 23.9554 63.9806 25.9505 63.9831 28.0314V33.6377ZM52.1341 4.48473C53.3059 4.48473 54.4513 4.81353 55.4256 5.42957C56.3999 6.0456 57.1592 6.92119 57.6076 7.94562C58.056 8.97004 58.1734 10.0973 57.9448 11.1848C57.7162 12.2723 57.1519 13.2713 56.3234 14.0554C55.4948 14.8394 54.4392 15.3734 53.2899 15.5897C52.1407 15.806 50.9495 15.695 49.8669 15.2707C48.7844 14.8463 47.8591 14.1278 47.2081 13.2058C46.5571 12.2838 46.2096 11.1999 46.2096 10.0911C46.2096 8.60418 46.8338 7.17818 47.9449 6.12679C49.0559 5.07539 50.5628 4.48473 52.1341 4.48473ZM52.1341 2.24219C50.4937 2.24219 48.8901 2.70252 47.5261 3.56496C46.1621 4.42741 45.099 5.65324 44.4712 7.08744C43.8434 8.52163 43.6792 10.0998 43.9992 11.6223C44.3193 13.1448 45.1092 14.5434 46.2692 15.6411C47.4292 16.7388 48.9071 17.4863 50.516 17.7891C52.1249 18.092 53.7926 17.9366 55.3082 17.3425C56.8238 16.7484 58.1192 15.7424 59.0306 14.4517C59.9419 13.1609 60.4284 11.6434 60.4284 10.0911C60.4284 8.00942 59.5545 6.01302 57.9991 4.54107C56.4436 3.06912 54.3339 2.24219 52.1341 2.24219Z" fill="#DDA627"/>
</svg>
