<svg width="272" height="168" viewBox="0 0 272 168" fill="none" xmlns="http://www.w3.org/2000/svg">
<circle cx="154" cy="10" r="10" fill="#B47B2B"/>
<circle cx="190" cy="10" r="10" fill="#B47B2B"/>
<circle cx="226" cy="10" r="10" fill="#B47B2B"/>
<circle cx="262" cy="10" r="10" fill="#B47B2B"/>
<circle cx="154" cy="47" r="10" fill="#B47B2B"/>
<circle cx="190" cy="47" r="10" fill="#B47B2B"/>
<circle cx="226" cy="47" r="10" fill="#B47B2B"/>
<circle cx="262" cy="47" r="10" fill="#B47B2B"/>
<circle cx="154" cy="84" r="10" fill="#B47B2B"/>
<circle cx="190" cy="84" r="10" fill="#B47B2B"/>
<circle cx="226" cy="84" r="10" fill="#B47B2B"/>
<circle cx="262" cy="84" r="10" fill="#B47B2B"/>
<circle cx="154" cy="121" r="10" fill="#B47B2B"/>
<circle cx="190" cy="121" r="10" fill="#B47B2B"/>
<circle cx="226" cy="121" r="10" fill="#B47B2B"/>
<circle cx="262" cy="121" r="10" fill="#B47B2B"/>
<circle cx="154" cy="158" r="10" fill="#B47B2B"/>
<circle cx="190" cy="158" r="10" fill="#B47B2B"/>
<circle cx="226" cy="158" r="10" fill="#B47B2B"/>
<circle cx="262" cy="158" r="10" fill="#B47B2B"/>
<circle cx="10" cy="10" r="10" fill="#B47B2B"/>
<circle cx="46" cy="10" r="10" fill="#B47B2B"/>
<circle cx="82" cy="10" r="10" fill="#B47B2B"/>
<circle cx="118" cy="10" r="10" fill="#B47B2B"/>
<circle cx="10" cy="47" r="10" fill="#B47B2B"/>
<circle cx="46" cy="47" r="10" fill="#B47B2B"/>
<circle cx="82" cy="47" r="10" fill="#B47B2B"/>
<circle cx="118" cy="47" r="10" fill="#B47B2B"/>
<circle cx="10" cy="84" r="10" fill="#B47B2B"/>
<circle cx="46" cy="84" r="10" fill="#B47B2B"/>
<circle cx="82" cy="84" r="10" fill="#B47B2B"/>
<circle cx="118" cy="84" r="10" fill="#B47B2B"/>
<circle cx="10" cy="121" r="10" fill="#B47B2B"/>
<circle cx="46" cy="121" r="10" fill="#B47B2B"/>
<circle cx="82" cy="121" r="10" fill="#B47B2B"/>
<circle cx="118" cy="121" r="10" fill="#B47B2B"/>
<circle cx="10" cy="158" r="10" fill="#B47B2B"/>
<circle cx="46" cy="158" r="10" fill="#B47B2B"/>
<circle cx="82" cy="158" r="10" fill="#B47B2B"/>
<circle cx="118" cy="158" r="10" fill="#B47B2B"/>
</svg>
